<?xml version="1.0" encoding="UTF-8" standalone="no"?>
<svg
   width="512"
   height="512"
   viewBox="0 0 512 512"
   version="1.1"
   id="svg852"
   sodipodi:docname="android.svg"
   inkscape:version="1.1.2 (b8e25be833, 2022-02-05)"
   xmlns:inkscape="http://www.inkscape.org/namespaces/inkscape"
   xmlns:sodipodi="http://sodipodi.sourceforge.net/DTD/sodipodi-0.dtd"
   xmlns="http://www.w3.org/2000/svg"
   xmlns:svg="http://www.w3.org/2000/svg">
  <defs
     id="defs856" />
  <sodipodi:namedview
     id="namedview854"
     pagecolor="#ffffff"
     bordercolor="#666666"
     borderopacity="1.0"
     inkscape:pageshadow="2"
     inkscape:pageopacity="0.0"
     inkscape:pagecheckerboard="0"
     showgrid="false"
     inkscape:zoom="1.5976562"
     inkscape:cx="255.68704"
     inkscape:cy="256"
     inkscape:window-width="1920"
     inkscape:window-height="1027"
     inkscape:window-x="-8"
     inkscape:window-y="-8"
     inkscape:window-maximized="1"
     inkscape:current-layer="svg852" />
  <path
     id="path841"
     style="display:inline;fill:#000000"
     d="m 97.382812,112.50283 a 8.6,8.6 0 0 0 -8.683593,12.93555 l 42.470701,73.58008 C 57.809922,238.67846 8.2,312.81854 0,399.59854 h 512 c -8.2,-86.78 -57.80961,-160.92055 -131.09961,-200.56055 l 42.48047,-73.58008 a 8.58,8.58 0 0 0 -14.77148,-8.7207 v 0.0606 l -43,74.52929 c -32.82,-15 -69.77954,-23.35937 -109.51954,-23.35937 -39.74,0 -76.69953,8.35937 -109.51953,23.35937 l -43,-74.52929 a 8.6,8.6 0 0 0 -6.187498,-4.29493 z M 373.57031,284.76846 a 21.46,21.46 0 0 1 7.51563,1.51367 21.459999,21.459999 0 0 1 1.82812,0.93359 21.46,21.46 0 0 1 4.79297,3.20313 21.459999,21.459999 0 0 1 0.95313,0.63672 21.459999,21.459999 0 0 1 2.02734,2.3457 21.46,21.46 0 0 1 0.51953,0.8086 21.459999,21.459999 0 0 1 2.50391,4.92187 21.46,21.46 0 0 1 0.35937,1.22461 21.459999,21.459999 0 0 1 0.82227,5.19336 21.46,21.46 0 0 1 0.10742,0.67773 21.46,21.46 0 0 1 -13.28906,19.82032 21.459999,21.459999 0 0 1 -0.0293,0.0117 21.46,21.46 0 0 1 -8.18359,1.62891 21.459999,21.459999 0 0 1 -0.0215,0 h -0.0273 a 21.46,21.46 0 0 1 -7.4043,-1.47851 21.459999,21.459999 0 0 1 -2.35351,-1.21094 21.46,21.46 0 0 1 -4.10938,-2.7461 21.459999,21.459999 0 0 1 -1.26953,-0.84765 21.459999,21.459999 0 0 1 -0.87891,-1.31446 21.46,21.46 0 0 1 -2.61914,-3.91992 21.459999,21.459999 0 0 1 -1.33593,-2.64453 21.46,21.46 0 0 1 -1.16211,-5.83203 21.459999,21.459999 0 0 1 -0.0566,-2.64648 21.46,21.46 0 0 1 1.22851,-6.16993 21.459999,21.459999 0 0 1 1.33203,-2.5957 21.46,21.46 0 0 1 2.64649,-3.96094 21.459999,21.459999 0 0 1 0.8457,-1.26562 21.459999,21.459999 0 0 1 1.29492,-0.86524 21.46,21.46 0 0 1 4.10352,-2.74218 21.459999,21.459999 0 0 1 2.37695,-1.20704 21.46,21.46 0 0 1 7.13086,-1.41796 21.459999,21.459999 0 0 1 0.29883,-0.0469 21.46,21.46 0 0 1 0.0527,-0.008 z m -238.5625,0.26367 a 21.459999,21.459999 0 0 1 8.36719,0.29688 21.459999,21.459999 0 0 1 7.61719,3.52539 21.46,21.46 0 0 1 0.10156,0.0684 21.459999,21.459999 0 0 1 8.76172,17.19921 21.46,21.46 0 0 1 0.0547,0.10547 21.45,21.45 0 0 1 -0.0859,1.63086 21.459999,21.459999 0 0 1 -0.0176,0.34766 21.45,21.45 0 0 1 -0.45898,2.83789 21.459999,21.459999 0 0 1 -0.0156,0.10156 21.459999,21.459999 0 0 1 -0.0254,0.0566 21.45,21.45 0 0 1 -9.54687,13.23828 21.459999,21.459999 0 0 1 -0.0645,0.041 21.45,21.45 0 0 1 -7.74609,2.89258 21.459999,21.459999 0 0 1 -0.13672,0.0215 21.45,21.45 0 0 1 -3.36328,0.29297 21.46,21.46 0 0 1 -0.8711,-0.44336 21.459999,21.459999 0 0 1 -4.0625,-0.14453 21.459999,21.459999 0 0 1 -11.75195,-7.91406 21.46,21.46 0 0 1 -0.74805,-0.80274 21.459999,21.459999 0 0 1 -3.45703,-17.09765 21.459999,21.459999 0 0 1 0.55664,-1.22071 21.46,21.46 0 0 1 0.45704,-1 21.459999,21.459999 0 0 1 12.60351,-12.60351 21.46,21.46 0 0 1 1.40039,-0.52344 21.459999,21.459999 0 0 1 2.43164,-0.90625 z" />
</svg>
