<svg id="aperture" xmlns="http://www.w3.org/2000/svg" viewBox="0 0 512 512"><defs><style>.cls-1{fill:none;stroke:#000;stroke-miterlimit:10;stroke-width:32px;}</style></defs><path d="M256,32a224.07,224.07,0,0,1,87.18,430.41A224.07,224.07,0,0,1,168.82,49.59,222.59,222.59,0,0,1,256,32m0-32C114.62,0,0,114.62,0,256S114.62,512,256,512,512,397.38,512,256,397.38,0,256,0Z"/><polygon class="cls-1" points="289.72 174.58 222.28 174.58 174.58 222.28 174.58 289.72 222.28 337.42 289.72 337.42 337.42 289.72 337.42 222.28 289.72 174.58"/><line class="cls-1" x1="222.28" y1="174.58" x2="33.87" y2="174.58"/><line class="cls-1" x1="478.32" y1="337.42" x2="289.92" y2="337.42"/><line class="cls-1" x1="289.75" y1="174.51" x2="156.53" y2="41.29"/><line class="cls-1" x1="355.66" y1="470.71" x2="222.44" y2="337.49"/><line class="cls-1" x1="337.51" y1="222.18" x2="337.51" y2="33.77"/><line class="cls-1" x1="174.68" y1="478.23" x2="174.68" y2="289.82"/><line class="cls-1" x1="337.58" y1="289.66" x2="470.81" y2="156.43"/><line class="cls-1" x1="41.39" y1="355.57" x2="174.61" y2="222.34"/></svg>