<?xml version="1.0" encoding="UTF-8" standalone="no"?>
<svg
   id="atom_BW"
   data-name="atom BW"
   viewBox="0 0 512 512"
   version="1.1"
   sodipodi:docname="atom2.svg"
   width="512"
   height="512"
   inkscape:version="1.1.2 (b8e25be833, 2022-02-05)"
   xmlns:inkscape="http://www.inkscape.org/namespaces/inkscape"
   xmlns:sodipodi="http://sodipodi.sourceforge.net/DTD/sodipodi-0.dtd"
   xmlns="http://www.w3.org/2000/svg"
   xmlns:svg="http://www.w3.org/2000/svg">
  <defs
     id="defs6695" />
  <sodipodi:namedview
     id="namedview6693"
     pagecolor="#ffffff"
     bordercolor="#666666"
     borderopacity="1.0"
     inkscape:pageshadow="2"
     inkscape:pageopacity="0.0"
     inkscape:pagecheckerboard="0"
     showgrid="false"
     width="512px"
     inkscape:zoom="1.5976562"
     inkscape:cx="255.68704"
     inkscape:cy="256"
     inkscape:window-width="1920"
     inkscape:window-height="1027"
     inkscape:window-x="-8"
     inkscape:window-y="-8"
     inkscape:window-maximized="1"
     inkscape:current-layer="atom_BW" />
  <path
     id="path6690"
     style="stroke-width:0.554177"
     d="m 252.70271,0.017561 c -2.73353,0.044904 -5.34338,0.103885 -8.09705,0.232443 -2.35443,0.1007465 -4.65069,0.2319008 -6.94737,0.3984214 -24.61762,1.7225713 -49.18358,7.0853582 -72.33649,15.8730746 -3.61295,1.373698 -7.23612,2.830118 -10.71614,4.343743 -21.18589,9.135424 -41.10475,21.186084 -59.074432,35.653163 -1.477798,1.199298 -3.109378,2.538682 -4.625326,3.816535 -12.552818,10.6082 -24.091255,22.416078 -34.400808,35.215545 -1.20766,1.504342 -2.527059,3.185433 -3.755045,4.775294 -13.191002,17.1998 -24.197653,36.07403 -32.641131,56.03861 -0.690877,1.64017 -1.451649,3.48486 -2.135464,5.21716 -9.0802418,22.84004 -14.7912217,47.0063 -16.9651956,71.48675 -0.12847801,1.61483 -0.29266811,3.45159 -0.39857711,5.15451 -0.2838209,4.06396 -0.477198,8.39265 -0.5535985,12.4648 -0.088179,3.9776 -0.066739,7.95693 0.024998,11.93427 0.049767,1.65637 0.1046551,3.53515 0.1918116,5.27566 0.1313672,2.92962 0.3072915,5.70299 0.5378982,8.61867 1.61657651,20.5105 5.75788971,41.03908 12.31805841,60.63166 2.084546,6.25899 4.427706,12.43111 6.987944,18.51084 0.704355,1.6342 1.49183,3.46735 2.25643,5.16532 8.942012,19.90628 20.460538,38.64795 34.145651,55.64464 1.199297,1.4778 2.53868,3.10938 3.816531,4.62534 10.608189,12.55282 22.416055,24.09128 35.215509,34.40083 1.504341,1.20767 3.185427,2.52707 4.775296,3.75506 17.19978,13.19102 36.07398,24.19768 56.03854,32.64116 1.64017,0.69088 3.48486,1.45165 5.21716,2.13546 22.84001,9.08026 47.00625,14.79124 71.48667,16.96522 1.61483,0.12848 3.45159,0.29267 5.15451,0.39858 4.06396,0.28382 8.39264,0.47719 12.46478,0.5536 3.9776,0.0882 7.95693,0.0667 11.93426,-0.025 1.65637,-0.0498 3.53515,-0.10465 5.27565,-0.19181 2.92962,-0.13136 5.70299,-0.30729 8.61867,-0.5379 20.51048,-1.61658 41.03904,-5.7579 60.6316,-12.31807 6.25898,-2.08455 12.4311,-4.42771 18.51082,-6.98795 1.6342,-0.70435 3.46735,-1.49184 5.16532,-2.25643 19.90625,-8.94203 38.64791,-20.46057 55.64458,-34.14569 1.47779,-1.1993 3.10937,-2.53868 4.62533,-3.81654 12.55281,-10.6082 24.09125,-22.41608 34.4008,-35.21554 1.20766,-1.50435 2.52707,-3.18543 3.75505,-4.7753 13.191,-17.1998 24.19766,-36.07402 32.64113,-56.0386 0.69087,-1.64017 1.45165,-3.48487 2.13546,-5.21717 9.08024,-22.84004 14.79122,-47.00629 16.96519,-71.48674 0.12849,-1.61483 0.29267,-3.4516 0.39858,-5.15452 0.28382,-4.06396 0.4772,-8.39265 0.55361,-12.46479 0.0882,-3.97761 0.0667,-7.95693 -0.025,-11.93428 -0.0498,-1.65636 -0.10466,-3.53515 -0.19181,-5.27565 -0.13137,-2.92962 -0.3073,-5.70299 -0.5379,-8.61867 -1.61658,-20.5105 -5.75789,-41.03909 -12.31807,-60.63167 -2.08454,-6.25899 -4.4277,-12.43111 -6.98794,-18.51084 -0.70435,-1.6342 -1.49183,-3.46735 -2.25642,-5.16532 -8.94202,-19.90627 -20.46055,-38.64795 -34.14566,-55.64464 -1.1993,-1.477799 -2.53868,-3.109381 -3.81653,-4.625331 C 441.0564,78.352639 429.24854,66.81419 416.44908,56.504626 414.94474,55.296965 413.26365,53.977565 411.67379,52.749577 394.47401,39.558561 375.5998,28.551899 355.63524,20.108412 353.99508,19.417535 352.15038,18.656762 350.41808,17.972946 327.57807,8.8926952 303.41184,3.1817094 278.93142,1.0077333 c -1.61483,-0.1284781 -3.4516,-0.2926684 -5.15451,-0.3985775 -4.06396,-0.2838212 -8.39265,-0.4771985 -12.46479,-0.5535991 -2.86931,-0.06493 -5.73962,-0.066285 -8.60941,-0.0379957 z m -64.01468,87.493435 c 9.80469,0.0012 19.30634,3.299328 27.90631,7.806936 8.30067,4.371607 15.96642,9.872188 23.13574,15.902088 3.45583,3.14833 4.59544,8.50523 2.72168,12.7875 -1.71917,4.22846 -6.16858,7.1313 -10.73237,6.9899 -2.938,-0.0113 -5.75339,-1.30123 -7.89151,-3.27809 -3.24132,-2.65644 -6.6001,-5.17228 -10.08634,-7.49919 -0.42,-0.26463 -1.10003,-0.72109 -1.54109,-1.00006 -1.45074,-0.92617 -2.96088,-1.83005 -4.37741,-2.62406 -5.34441,-2.94593 -11.08276,-5.52711 -17.21984,-6.13042 -3.70047,-0.37953 -7.69386,0.33764 -10.57191,2.83255 -2.08378,1.73016 -3.6154,4.02898 -4.8021,6.44167 -0.13033,0.2573 -0.43838,0.92449 -0.62183,1.35668 -2.73443,6.52061 -3.65294,13.63597 -4.02045,20.64742 -0.17927,3.64581 -0.14743,7.29864 -0.007,10.94522 0.0389,0.67893 0.0854,1.68275 0.12795,2.48625 0.12136,1.86547 0.24244,3.54303 0.41551,5.41319 0.7672,8.08672 2.05108,16.12096 3.70857,24.07151 14.12325,-2.03187 28.36113,-3.22387 42.6187,-3.74612 14.25144,-18.21036 29.84668,-35.44818 47.31292,-50.63615 11.49189,-9.92096 23.79964,-19.04819 37.3689,-25.93859 9.22342,-4.626741 19.14716,-8.287415 29.51491,-9.024452 7.83755,-0.54772 15.94355,0.867018 22.7707,4.875162 6.84267,3.92327 12.11998,10.24181 15.33611,17.39523 4.21562,9.3165 5.41372,19.69387 5.28691,29.831 -0.14938,9.04452 -1.3161,18.05573 -3.1257,26.91109 -1.14931,4.55913 -5.37517,8.10339 -10.06306,8.44691 -4.52475,0.45094 -9.14965,-2.11008 -11.16596,-6.18665 -1.36238,-2.57422 -1.5493,-5.63313 -0.84677,-8.43121 1.74818,-9.42127 2.82484,-19.0645 1.97669,-28.64417 -0.52517,-5.27926 -1.58408,-10.70283 -4.4798,-15.23837 -1.75928,-2.81748 -4.59706,-4.94801 -7.85353,-5.68086 -5.05338,-1.17999 -10.31409,-0.17662 -15.20076,1.27625 -8.90334,2.76943 -17.09218,7.41528 -24.83337,12.53947 -13.61711,9.13721 -25.88968,20.13738 -37.32894,31.85047 -5.20291,5.35221 -10.2299,10.87514 -15.08025,16.54856 30.95187,0.91707 61.89214,4.45729 92.03813,11.63839 18.10717,4.37239 35.98201,10.02067 52.84688,17.99364 11.14883,5.32015 21.95568,11.67656 31.05288,20.10923 6.77431,6.3168 12.63701,14.0139 15.21185,23.0277 2.44236,8.30279 1.66317,17.45962 -2.03381,25.27427 -3.99531,8.58048 -10.90681,15.45262 -18.54535,20.87197 -8.09516,5.7311 -17.09777,10.06994 -26.33472,13.62044 -4.51888,1.61649 -9.93668,-0.0528 -12.77641,-3.91726 -2.81154,-3.60735 -3.09472,-8.92552 -0.68204,-12.81152 1.4592,-2.49836 3.93666,-4.25316 6.6557,-5.15106 8.02143,-3.22733 15.91086,-7.07794 22.68147,-12.52088 3.74857,-3.0851 7.3183,-6.7677 8.93197,-11.44623 1.24378,-3.49663 0.57627,-7.39438 -1.09566,-10.62982 -2.69179,-5.28373 -7.10565,-9.44082 -11.69408,-13.0843 -8.47523,-6.58254 -18.10487,-11.50475 -27.9327,-15.7272 -18.44559,-7.78753 -37.88015,-13.00775 -57.50791,-16.81186 -6.20143,-1.19121 -12.32007,-2.20974 -18.55269,-3.11368 -6.14778,-0.87686 -12.35196,-1.64262 -18.58093,-2.26523 -6.20078,-0.63142 -12.3851,-1.12032 -18.63802,-1.50251 -10.25859,-0.60778 -20.55558,-0.95329 -30.88881,-0.87466 -0.74295,0.007 -1.48589,0.0145 -2.22885,0.0217 -11.65233,15.72992 -22.32395,32.18673 -31.9276,49.24484 2.93284,6.78486 6.03475,13.50916 9.26313,20.10791 3.49062,7.13372 7.22039,14.24873 11.03439,21.15057 11.10849,19.97238 23.69874,39.34465 38.14189,57.15708 2.11767,2.61171 4.29657,5.20638 6.46151,7.68844 2.16511,2.49106 4.41945,4.99289 6.62606,7.33477 8.71307,9.23707 18.07311,17.97349 28.64541,25.05921 5.89381,3.8873 12.1933,7.38921 19.08688,9.11962 4.23405,1.01844 8.98995,1.31815 12.92367,-0.86738 3.95892,-2.28768 6.30567,-6.49138 7.86475,-10.64868 2.6919,-7.40692 3.40589,-15.36111 3.53442,-23.18962 0.0536,-4.56553 -0.17447,-9.28579 -0.55453,-13.73524 -0.90329,-10.17375 -2.65982,-20.25704 -4.92723,-30.21108 -0.43954,-1.87235 -0.92832,-3.94634 -1.41864,-5.88794 -2.64947,-10.55495 -5.90937,-21.05679 -9.52049,-31.25238 -3.40558,-9.58774 -7.22204,-19.133 -11.28165,-28.39413 -2.19784,-5.0464 -4.55692,-10.02078 -6.88199,-15.0081 -1.76977,-4.31847 -0.50396,-9.6337 3.01147,-12.69932 3.32338,-3.04919 8.50098,-3.79938 12.54821,-1.805 2.71308,1.25014 4.76599,3.64896 5.87125,6.3962 10.91826,22.91613 20.15598,46.67921 26.83869,71.18299 4.42163,16.37351 7.76061,33.10684 8.86259,50.05471 0.71314,11.62027 0.42956,23.42467 -2.28428,34.79334 -2.15941,8.94351 -6.00319,17.75908 -12.58228,24.34756 -6.18065,6.27122 -14.74907,10.06514 -23.53448,10.52134 -9.39902,0.54336 -18.67533,-2.20321 -27.10282,-6.17555 -11.90952,-5.67499 -22.48363,-13.77621 -32.23353,-22.5849 -14.639,-13.35064 -27.48025,-28.56106 -39.14834,-44.54204 -15.7105,-21.60553 -29.27398,-44.73543 -40.99169,-68.72958 -0.5422,-1.12445 -1.08438,-2.24891 -1.62657,-3.37336 -2.54405,5.37583 -5.02014,10.93733 -7.26782,16.34866 -4.67698,11.3227 -8.84257,23.04162 -12.00432,34.96231 -2.2697,8.59736 -4.09471,17.47544 -4.94433,26.39015 -0.11846,1.24851 -0.23986,2.82197 -0.31572,4.2033 -0.28156,5.20559 -0.20001,10.45587 0.64997,15.60885 0.0616,0.34002 0.19166,1.08736 0.29527,1.57679 0.95506,4.50016 2.57181,9.1389 6.0119,12.35649 2.99008,2.80583 7.28501,3.57265 11.25212,3.378 0.30183,-0.0126 1.01809,-0.055 1.48994,-0.10494 7.25718,-0.77183 14.11042,-3.60408 20.56606,-6.88083 5.93419,-3.0285 11.52749,-6.67341 16.96817,-10.50465 3.96025,-2.5541 9.48486,-2.2469 13.1415,0.72288 3.62488,2.79014 5.23948,7.86807 3.87168,12.23614 -0.79838,2.82818 -2.80089,5.19072 -5.27791,6.72071 -10.05644,7.06186 -20.78883,13.37687 -32.47166,17.3344 -9.00217,3.02052 -18.78852,4.54429 -28.18061,2.53527 -8.51516,-1.75578 -16.32173,-6.71119 -21.48438,-13.71328 -5.611,-7.4991 -8.25712,-16.78567 -9.28986,-25.98622 -1.39083,-12.60691 -0.0101,-25.34784 2.37914,-37.74811 3.89,-19.60254 10.48571,-38.57698 18.37971,-56.90381 4.35604,-10.07805 9.14242,-19.96867 14.28807,-29.66638 -5.34124,-13.26883 -10.05246,-26.7977 -13.95295,-40.56163 -2.23686,0.47889 -4.53379,1.01017 -6.66307,1.53715 -5.0009,1.21986 -9.94186,2.60386 -14.76424,4.17546 -9.69875,3.18997 -19.27026,7.07203 -27.84897,12.67349 -0.5562,0.36985 -1.36654,0.91683 -2.00365,1.38033 -4.27715,3.11203 -8.411509,6.78337 -10.754125,11.6179 -1.498811,3.00182 -1.777166,6.57443 -0.682188,9.75336 1.742775,5.19408 5.529473,9.38226 9.513923,13.00566 3.48248,3.11241 7.30465,5.82241 11.26079,8.29657 0.53703,0.31769 1.33581,0.82239 1.98729,1.20046 2.46695,1.51647 5.07284,2.78986 7.58013,4.2309 4.01073,2.52773 6.05533,7.71827 4.86025,12.30386 -1.01979,4.39066 -4.87062,7.92529 -9.33232,8.56577 -2.79931,0.48091 -5.68534,-0.25596 -8.09388,-1.70631 -10.26012,-5.42302 -20.146874,-11.88047 -28.157416,-20.3584 -6.038443,-6.41777 -10.903283,-14.25329 -12.537775,-23.00916 -1.506393,-7.8282 -0.20711,-16.11056 3.454865,-23.17604 4.355396,-8.52155 11.534414,-15.24824 19.372729,-20.56633 10.492717,-7.06659 22.270817,-11.98232 34.249467,-15.9103 7.59271,-2.46246 15.32414,-4.48238 23.12111,-6.18596 -2.97627,-14.50233 -4.93185,-29.28633 -4.72016,-44.1152 0.22622,-11.10362 1.68213,-22.3768 6.05679,-32.66744 3.14793,-7.3824 8.11543,-14.164764 14.91539,-18.560169 5.92214,-3.929293 13.02176,-5.857002 20.10478,-5.841776 z m 8.6832,117.517504 c -4.05193,0.36451 -8.25027,0.79221 -12.34664,1.29624 -1.54934,0.18853 -3.12364,0.39168 -4.61423,0.59553 1.72736,5.93921 3.58285,11.75167 5.61776,17.60985 0.21402,0.4583 0.34343,1.6882 0.72244,0.64209 4.24194,-6.8927 8.65124,-13.68188 13.22307,-20.36025 -0.86747,0.0722 -1.73493,0.14436 -2.6024,0.21654 z m 59.3276,30.64022 c 6.94529,-0.0493 13.78767,3.35427 17.96261,8.90017 4.36236,5.6273 5.75478,13.3713 3.68717,20.17755 -2.1246,7.31401 -8.20786,13.3102 -15.56209,15.30287 -6.87828,1.97222 -14.65092,0.40341 -20.20126,-4.12154 -5.53796,-4.37311 -8.78436,-11.45812 -8.4583,-18.50963 0.20982,-7.35186 4.31851,-14.43014 10.57103,-18.29369 3.56853,-2.26005 7.77903,-3.4584 12.00084,-3.45573 z" />
</svg>
