<?xml version="1.0" encoding="UTF-8" standalone="no"?>
<svg
   id="Layer_1"
   data-name="Layer 1"
   viewBox="0 0 1024 1024"
   version="1.1"
   sodipodi:docname="blender2.svg"
   inkscape:version="1.1.2 (b8e25be833, 2022-02-05)"
   xmlns:inkscape="http://www.inkscape.org/namespaces/inkscape"
   xmlns:sodipodi="http://sodipodi.sourceforge.net/DTD/sodipodi-0.dtd"
   xmlns="http://www.w3.org/2000/svg"
   xmlns:svg="http://www.w3.org/2000/svg">
  <defs
     id="defs842" />
  <sodipodi:namedview
     id="namedview840"
     pagecolor="#ffffff"
     bordercolor="#666666"
     borderopacity="1.0"
     inkscape:pageshadow="2"
     inkscape:pageopacity="0.0"
     inkscape:pagecheckerboard="0"
     showgrid="false"
     objecttolerance="1"
     inkscape:zoom="0.79882812"
     inkscape:cx="387.44254"
     inkscape:cy="495.72616"
     inkscape:window-width="1920"
     inkscape:window-height="1027"
     inkscape:window-x="-8"
     inkscape:window-y="-8"
     inkscape:window-maximized="1"
     inkscape:current-layer="Layer_1" />
  <g
     id="bw"
     style="display:none">
    <path
       d="m 533.81,563.63 c 1.92,-34.15 18.64,-64.24 43.87,-85.57 24.75,-20.95 58.05,-33.76 94.39,-33.76 36.34,0 69.61,12.81 94.37,33.76 25.22,21.33 41.94,51.42 43.87,85.53 1.92,35.1 -12.19,67.7 -36.93,91.86 -25.23,24.58 -61.12,40 -101.31,40 -40.19,0 -76.15,-15.43 -101.36,-40 -24.76,-24.16 -38.83,-56.76 -36.9,-91.82 z"
       id="path834" />
    <path
       d="m 313.64,632.8 c 0.24,13.37 4.5,39.34 10.89,59.62 13.44,42.94 36.24,82.65 68,117.65 32.55,36 72.63,64.88 118.92,85.4 48.6,21.53 101.33,32.53 156.09,32.44 a 382.66,382.66 0 0 0 156.05,-33 c 46.29,-20.72 86.33,-49.74 118.82,-85.74 31.7,-35.15 54.46,-74.94 67.93,-117.87 A 296.17,296.17 0 0 0 1021,560.18 303.77,303.77 0 0 0 977.67,441.61 a 330.77,330.77 0 0 0 -79,-87.15 h 0.08 L 578.82,108.8 a 10.31,10.31 0 0 0 -0.83,-0.65 c -21,-16.12 -56.28,-16.06 -79.36,0.09 -23.34,16.32 -26,43.32 -5.24,60.36 l -0.09,0.09 133.42,108.49 -406.65,0.43 h -0.54 c -33.62,0 -65.93,22.09 -72.32,50 -6.58,28.39 16.25,51.94 51.2,52.07 v 0.13 l 206.11,-0.4 -367.85,282.27 c -0.47,0.35 -1,0.71 -1.41,1.05 -34.69,26.57 -45.91,70.75 -24,98.71 22.17,28.42 69.33,28.48 104.39,0.16 L 316.33,597.31 c 0,0 -2.92,22.18 -2.69,35.49 z m 515.82,74.27 c -41.36,42.14 -99.27,66 -161.92,66.16 -62.65,0.16 -120.65,-23.57 -162,-65.63 a 192.71,192.71 0 0 1 -44.22,-69.21 179.86,179.86 0 0 1 -10.15,-77.34 182.72,182.72 0 0 1 22.16,-72.81 200.93,200.93 0 0 1 49.2,-58.5 c 40.21,-32.76 91.39,-50.5 144.93,-50.57 53.54,-0.07 104.74,17.5 145,50.16 a 199.83,199.83 0 0 1 49.14,58.32 182.49,182.49 0 0 1 22.25,72.76 180.21,180.21 0 0 1 -10.18,77.29 193.63,193.63 0 0 1 -44.18,69.37 z"
       id="path836" />
  </g>
  <path
     id="path1595-8-5"
     style="color:#000000;fill:#000000;stroke-linecap:round;-inkscape-stroke:none"
     d="m 529.31403,305.06144 a 59,59 0 0 0 -35.57226,8.01758 L 31.021064,587.85636 a 59,59 0 0 0 -20.605468,80.85547 59,59 0 0 0 80.853515,20.60352 L 553.99177,414.538 a 59,59 0 0 0 20.60546,-80.85351 59,59 0 0 0 -45.2832,-28.62305 z M 555.69684,44.545821 a 59,59 0 0 0 -32.48828,16.554687 59,59 0 0 0 0,83.439452 l 319.54883,319.54883 a 59,59 0 0 0 83.43945,0 59,59 0 0 0 0,-83.4375 L 606.64606,61.100508 A 59,59 0 0 0 555.69684,44.545821 Z M 203.65973,266.39933 a 59,59 0 0 0 -59,59 59,59 0 0 0 59,59 h 451.91211 a 59,59 0 0 0 59,-59 59,59 0 0 0 -59,-59 z m 461.26563,-0.0762 c -196.37608,1e-5 -356.92773,160.55166 -356.92774,356.92773 1e-5,196.37608 160.55166,356.92969 356.92774,356.92969 196.37608,0 356.92974,-160.55361 356.92974,-356.92969 0,-196.37607 -160.55366,-356.92773 -356.92974,-356.92773 z m 0,126.66602 c 127.92022,0 230.26367,102.3415 230.26367,230.26171 0,127.92022 -102.34345,230.26172 -230.26367,230.26172 -127.92022,0 -230.26172,-102.3415 -230.26172,-230.26172 0,-127.92021 102.3415,-230.26171 230.26172,-230.26171 z M 803.87981,623.25157 A 138.95354,138.95354 0 0 1 664.92627,762.2051 138.95354,138.95354 0 0 1 525.97274,623.25157 138.95354,138.95354 0 0 1 664.92627,484.29803 138.95354,138.95354 0 0 1 803.87981,623.25157 Z" />
</svg>
