<svg xmlns="http://www.w3.org/2000/svg" viewBox="0 0 512 512"><defs><style>.cls-1{fill:none;stroke:#000;stroke-linecap:round;stroke-linejoin:round;stroke-width:32px;}</style></defs><g id="camera"><path d="M445.64,124A34.39,34.39,0,0,1,480,158.36V393.64A34.39,34.39,0,0,1,445.64,428H66.36A34.39,34.39,0,0,1,32,393.64V158.36A34.39,34.39,0,0,1,66.36,124H445.64m0-32H66.36A66.36,66.36,0,0,0,0,158.36V393.64A66.36,66.36,0,0,0,66.36,460H445.64A66.36,66.36,0,0,0,512,393.64V158.36A66.36,66.36,0,0,0,445.64,92Z"/><polyline class="cls-1" points="404 108 404 56 300 56 300 108"/><circle class="cls-1" cx="256" cy="276" r="117.64"/></g></svg>