<?xml version="1.0" encoding="UTF-8" standalone="no"?>
<svg
   id="greyscale"
   width="512"
   height="512"
   viewBox="0 0 512 512"
   version="1.1"
   sodipodi:docname="creativeCloud2.svg"
   inkscape:version="1.1.2 (b8e25be833, 2022-02-05)"
   xmlns:inkscape="http://www.inkscape.org/namespaces/inkscape"
   xmlns:sodipodi="http://sodipodi.sourceforge.net/DTD/sodipodi-0.dtd"
   xmlns="http://www.w3.org/2000/svg"
   xmlns:svg="http://www.w3.org/2000/svg">
  <defs
     id="defs844" />
  <sodipodi:namedview
     id="namedview842"
     pagecolor="#ffffff"
     bordercolor="#666666"
     borderopacity="1.0"
     inkscape:pageshadow="2"
     inkscape:pageopacity="0.0"
     inkscape:pagecheckerboard="0"
     showgrid="false"
     inkscape:zoom="1.5976562"
     inkscape:cx="255.68704"
     inkscape:cy="256"
     inkscape:window-width="1920"
     inkscape:window-height="1027"
     inkscape:window-x="-8"
     inkscape:window-y="-8"
     inkscape:window-maximized="1"
     inkscape:current-layer="greyscale"
     showguides="true"
     inkscape:guide-bbox="true"
     inkscape:snap-global="true">
    <sodipodi:guide
       position="0,444.40098"
       orientation="-1,0"
       id="guide916"
       inkscape:label=""
       inkscape:locked="false"
       inkscape:color="rgb(0,0,255)" />
    <sodipodi:guide
       position="-25.662592,512"
       orientation="0,1"
       id="guide918"
       inkscape:label=""
       inkscape:locked="false"
       inkscape:color="rgb(0,0,255)" />
    <sodipodi:guide
       position="329.23227,62"
       orientation="0,1"
       id="guide956"
       inkscape:label=""
       inkscape:locked="false"
       inkscape:color="rgb(0,0,255)" />
    <sodipodi:guide
       position="15.647922,450"
       orientation="0,1"
       id="guide1038"
       inkscape:label=""
       inkscape:locked="false"
       inkscape:color="rgb(0,0,255)" />
    <sodipodi:guide
       position="245.35941,394"
       orientation="0,1"
       id="guide1040"
       inkscape:label=""
       inkscape:locked="false"
       inkscape:color="rgb(0,0,255)" />
    <sodipodi:guide
       position="0,371.79462"
       orientation="-1,0"
       id="guide1066"
       inkscape:label=""
       inkscape:locked="false"
       inkscape:color="rgb(0,0,255)" />
    <sodipodi:guide
       position="512,413.73105"
       orientation="-1,0"
       id="guide1148"
       inkscape:label=""
       inkscape:locked="false"
       inkscape:color="rgb(0,0,255)" />
    <sodipodi:guide
       position="152.0978,0"
       orientation="0,1"
       id="guide1365"
       inkscape:label=""
       inkscape:locked="false"
       inkscape:color="rgb(0,0,255)" />
    <sodipodi:guide
       position="361.15403,120.80196"
       orientation="0,-1"
       id="guide2219" />
    <sodipodi:guide
       position="165.49633,335.13936"
       orientation="0,-1"
       id="guide3039" />
    <sodipodi:guide
       position="320.33252,392.76284"
       orientation="1,0"
       id="guide3041" />
    <sodipodi:guide
       position="184.60636,257.38875"
       orientation="0,-1"
       id="guide3043" />
    <sodipodi:guide
       position="57.271394,227.99022"
       orientation="0,-1"
       id="guide3045" />
    <sodipodi:guide
       position="107.54939,175"
       orientation="0,1"
       id="guide3160"
       inkscape:label=""
       inkscape:locked="false"
       inkscape:color="rgb(0,0,255)" />
    <sodipodi:guide
       position="115.7373,282"
       orientation="0,1"
       id="guide3162"
       inkscape:label=""
       inkscape:locked="false"
       inkscape:color="rgb(0,0,255)" />
    <sodipodi:guide
       position="55.766348,222.5461"
       orientation="1,0"
       id="guide3164" />
    <sodipodi:guide
       position="165.49633,335.13936"
       orientation="1,0"
       id="guide3166" />
    <sodipodi:guide
       position="110,348.46297"
       orientation="-1,0"
       id="guide3168"
       inkscape:label=""
       inkscape:locked="false"
       inkscape:color="rgb(0,0,255)" />
  </sodipodi:namedview>
  <path
     id="path839"
     style="display:none;opacity:0.20935;fill:#aa0000;stroke-width:0.652592"
     d="m 521.28823,-72.911235 c -179.05416,0.0086 -358.10857,-1.12e-4 -537.162613,0.01921 -14.368342,0.222272 -28.608819,5.947529 -38.980796,15.923549 -10.672794,10.059641 -17.255072,24.309729 -17.948006,38.963638 -0.200889,7.23412 -0.07523,14.4750363 -0.112411,21.7118973 0.006,174.8065507 -0.0089,349.6133607 0.03098,524.4197307 0.28014,16.53749 8.02657,32.82391 20.834839,43.32422 1.595421,1.34893 3.532824,2.75422 5.106871,3.80367 3.847996,2.54903 8.00086,4.63576 12.340603,6.20728 0.858477,0.29902 2.071801,0.72151 3.092002,1.01786 2.532029,0.77287 5.383916,1.36744 7.838902,1.73525 6.932017,1.06202 13.9631834,0.58615 20.9451226,0.693 175.9229564,-0.0116 351.8460964,-10e-4 527.7689264,-0.0261 5.98403,0.0935 12.00098,-0.52172 17.75529,-2.21281 8.56263,-2.44099 16.55688,-6.86756 23.14946,-12.85446 0.40376,-0.38253 1.17565,-1.08878 1.69992,-1.61454 10.18042,-10.04011 16.49244,-23.94369 17.13591,-38.24608 0.25984,-6.48694 0.062,-12.98296 0.11449,-19.47369 -0.001,-175.49399 0.009,-350.98819 -0.0242,-526.482041 -0.22408,-13.487324 -5.31841,-26.839898 -14.21871,-36.987729 -8.17061,-9.443964 -19.50031,-16.080372 -31.71348,-18.657452 -0.81334,-0.169905 -2.04126,-0.396413 -3.02321,-0.543766 -4.83895,-0.757565 -9.74512,-0.761639 -14.6299,-0.720629 z M 317.85564,64.132941 c 23.27481,-0.05853 46.57182,4.109803 68.30642,12.461305 28.62984,10.926037 54.4856,28.992074 74.61098,52.099104 22.85359,26.07514 38.57718,58.33592 44.97912,92.41692 3.78223,19.82776 4.48086,40.26778 1.7036,60.27402 -4.03781,29.93808 -15.2282,58.8939 -32.48462,83.69762 -17.05912,24.66073 -39.90741,45.30408 -66.25388,59.64123 -27.0936,14.80318 -57.85109,22.85044 -88.73027,23.10472 -9.45338,0.0841 -18.90766,-0.0103 -28.36143,0.0291 -42.83771,-0.0116 -85.67607,0.0398 -128.51335,-0.0628 C 129.75008,447.14933 96.682314,435.8332 69.956025,415.84632 41.040156,394.31369 19.57867,363.07944 9.5636471,328.46805 4.1430261,309.81478 1.8024883,290.19997 3.2580956,270.80737 6.9729459,223.85244 31.655064,178.9922 69.340426,150.7326 c 21.521749,-16.24729 47.329014,-26.63378 74.030114,-30.23248 12.9494,-1.75974 26.10526,-2.01365 39.10555,-0.65477 23.54777,-23.99591 54.08165,-40.604093 86.46006,-49.220429 15.9462,-4.215301 32.42104,-6.455318 48.91949,-6.492006 z M 161.3487,150.33896 c -23.24527,0.42868 -46.34913,6.99971 -66.296578,18.9542 -23.223017,13.79692 -42.126548,34.75333 -53.371878,59.32132 -10.110138,21.84411 -13.98111,46.46845 -11.331798,70.37568 2.507588,23.38129 11.379097,46.02412 25.373392,64.91831 15.362293,20.8691 36.89288,37.13912 61.203892,46.12986 15.67689,5.84931 32.45852,8.60743 49.17926,8.34739 h 66.65122 c -8.747,-5.34427 -17.45983,-10.75526 -25.84763,-16.65381 -8.46119,-5.88739 -16.87321,-12.21764 -24.68056,-19.07371 -5.22573,-4.65053 -10.30842,-9.53379 -14.51425,-15.14654 -2.39143,-2.71931 -0.33101,-2.02393 -8.02159,-2.215 -19.10704,-1.21396 -37.53029,-9.57689 -51.4104,-22.69667 -3.47588,-3.2635 -6.66607,-6.82722 -9.558895,-10.61633 -0.275704,-0.3892 -0.869884,-1.16667 -1.265778,-1.71768 -10.456059,-14.43891 -16.193881,-32.37172 -15.379145,-50.23048 0.172161,-5.61959 1.001511,-11.2148 2.354314,-16.66905 1.426747,-5.6312 3.447391,-11.10983 6.048002,-16.3051 2.81539,-5.6351 6.291185,-10.94379 10.355672,-15.75853 11.62189,-14.13762 28.25124,-24.01286 46.19492,-27.57078 0.99212,-0.20242 2.04928,-0.39279 2.88042,-0.52275 18.55456,-3.10363 38.14851,0.47653 54.36386,10.02904 4.35102,2.57963 8.5414,5.48404 12.29839,8.87516 17.83419,18.34403 35.64914,36.70855 53.49536,55.03977 2.63332,2.45324 5.73319,4.403 9.12446,5.62142 3.58656,1.2921 7.45546,1.79416 11.25375,1.43945 3.84142,-0.34564 7.59011,-1.57525 10.91332,-3.53162 3.27524,-1.95183 6.11426,-4.61923 8.26853,-7.76714 2.13295,-3.15987 3.57503,-6.77789 4.18821,-10.5431 0.59442,-3.7666 0.3609,-7.65445 -0.68273,-11.32372 -1.05902,-3.66266 -2.92046,-7.08546 -5.42329,-9.96406 -7.68474,-7.97653 -15.47689,-15.85751 -23.20298,-23.79728 -10.82302,-11.05809 -21.6071,-22.15629 -32.45437,-33.18941 -3.08442,-2.67014 -6.23419,-5.25874 -9.51289,-7.68785 -3.94125,-2.87661 -8.02113,-5.56558 -12.23931,-8.01917 -4.69423,-2.69741 -9.52446,-5.16269 -14.51636,-7.26266 -4.32373,-1.88996 -8.77621,-3.47331 -13.27815,-4.88315 -4.70718,-1.44458 -9.49581,-2.62059 -14.32911,-3.55839 -4.59846,-0.83472 -9.22771,-1.52455 -13.88926,-1.87856 -4.3028,-0.37077 -8.62207,-0.50958 -12.94002,-0.46906 z M 318.16946,92.791099 c -22.90349,0.201362 -45.87759,4.857633 -66.67894,14.559821 -14.50105,6.72196 -21.33943,10.096 -33.05855,20.9547 -1.77768,1.74797 -2.25819,3.49672 0.46949,5.10805 7.07501,2.81862 13.96866,6.08515 20.75249,9.54212 4.81196,2.5383 9.5821,5.16236 14.17199,8.08902 3.20298,2.03471 6.38105,3.87954 9.46079,6.06752 0.633,0.73396 1.27842,0.78928 1.93826,0.0538 9.8702,-7.01752 15.72,-6.96438 27.53508,-9.7025 10.69535,-2.50628 20.52551,-2.85224 31.48551,-2.48726 20.34169,0.79195 40.40412,7.39583 57.25838,18.80957 0.43111,0.29307 1.28919,0.891 1.88373,1.30075 18.67052,13.13188 33.1457,32.16872 40.60336,53.75844 5.05922,14.50628 6.94964,30.09485 5.57318,45.39214 -0.40209,4.98687 -1.18182,9.94404 -2.25864,14.82856 -1.23985,5.61641 -2.91985,11.13327 -4.99576,16.49593 -1.91127,4.92196 -4.18198,9.6965 -6.73834,14.31538 -2.74386,4.83127 -5.78444,9.49696 -9.1972,13.88454 -3.86671,5.05428 -8.24811,9.69279 -12.78978,14.14209 -4.71615,4.45258 -9.79738,8.52631 -15.24628,12.04906 -4.80721,3.15879 -9.89863,5.87331 -15.15215,8.21252 -4.98573,2.17908 -10.13222,3.97856 -15.3857,5.39627 -5.2696,1.38656 -10.6399,2.36503 -16.05513,2.96848 -7.90598,0.79211 -15.91091,0.8331 -23.78827,-0.29451 -2.64163,-0.37462 -5.26674,-0.85766 -7.87398,-1.42348 -0.46403,-0.11796 -1.5249,-0.36169 -2.21747,-0.52781 -20.90699,-5.17151 -39.92036,-16.77069 -55.12423,-31.89867 -24.05513,-23.99301 -48.07087,-48.02694 -72.14448,-72.00062 -2.54592,-2.51537 -5.61305,-4.48367 -8.94747,-5.7803 -3.5564,-1.36106 -7.41051,-1.95834 -11.21256,-1.68009 -3.10096,0.19016 -6.14199,1.00647 -8.98702,2.2445 -2.86392,1.34362 -5.53712,3.1363 -7.74798,5.40552 -2.5073,2.60326 -4.44099,5.73111 -5.70889,9.11271 -1.27015,3.53118 -1.83172,7.32716 -1.52222,11.07373 0.21458,3.08788 1.04673,6.11125 2.29435,8.9393 1.49452,3.21729 3.65842,6.0827 6.21547,8.53232 23.92664,24.05586 47.82039,48.14524 71.76756,72.18017 22.67581,22.11052 51.19869,38.54655 82.19934,45.4989 12.2791,2.75236 24.91545,3.99747 37.49422,3.4193 4.73142,-0.19352 9.45259,-0.60754 14.14988,-1.20985 4.6952,-0.60818 9.36068,-1.43952 13.98491,-2.45737 4.62227,-1.0279 9.19487,-2.27235 13.71105,-3.69675 4.5144,-1.42991 8.95891,-3.0771 13.33026,-4.89911 4.3264,-1.81459 8.57158,-3.82108 12.7237,-6.00632 4.23057,-2.22027 8.34632,-4.65559 12.3638,-7.24174 4.01552,-2.59203 7.89641,-5.38888 11.66884,-8.32359 3.72483,-2.92269 7.31318,-6.01684 10.77434,-9.24799 7.21326,-6.80913 13.94384,-14.14708 19.88525,-22.09432 17.53308,-23.28316 28.71604,-51.28065 32.02873,-80.2382 3.46824,-29.53242 -1.30679,-60.01177 -13.83215,-86.99702 C 454.15777,158.5209 432.65764,134.0927 406.16545,117.4967 383.05919,102.92858 356.18724,94.431265 328.91064,93.021615 325.33452,92.82244 321.75101,92.759573 318.16946,92.791142 Z"
     sodipodi:insensitive="true" />
  <path
     id="path1176"
     style="display:inline;opacity:1;fill:#000000"
     d="M 318 62 A 194 194 0 0 0 181.59375 118.74805 A 166 166 0 0 0 166 118 A 166 166 0 0 0 0 284 A 166 166 0 0 0 165.46875 449.96289 L 165.46875 450 L 166 450 L 318.43555 450 L 318.43555 449.96875 A 194 194 0 0 0 512 256 A 194 194 0 0 0 318 62 z M 320.625 98.666016 C 414.71794 98.666016 476.71484 175.92707 476.71484 254.84375 C 476.71484 334.42975 411.27204 411.0545 317.22852 411.0625 C 267.42692 411.13789 223.03013 378.52598 189.41602 348.26172 C 155.79748 317.99348 132.80469 287.75391 132.80469 287.75391 A 20 20 0 0 1 136.58984 259.72266 A 20 20 0 0 1 164.61914 263.50977 C 164.61914 263.50977 185.65847 291.05381 216.18164 318.53516 C 246.70481 346.0165 286.55278 371.1141 317.18164 371.0625 L 317.19727 371.0625 L 317.21484 371.0625 C 389.6206 371.0625 436.71484 312.57939 436.71484 254.84375 C 436.71484 196.43487 393.10067 138.66602 320.625 138.66602 C 292.40042 138.66602 273.1105 146.70285 260.60156 154.41016 C 259.19694 155.27561 257.92716 156.11231 256.7207 156.93164 C 245.4345 149.22489 232.74358 142.10849 218.59375 136.73438 C 223.29759 132.15439 230.3578 126.06178 239.61914 120.35547 C 257.48702 109.34628 284.62871 98.666016 320.625 98.666016 z M 165.49609 156.86133 C 206.62445 156.86133 240.35603 179.69765 263.9707 200.83203 C 287.58538 221.96641 302.20508 243.27148 302.20508 243.27148 A 20 20 0 0 1 297.07031 271.08594 A 20 20 0 0 1 269.25586 265.95117 C 269.25586 265.95117 257.11785 248.37956 237.29492 230.63867 C 217.47199 212.89778 191.0865 196.86133 165.49609 196.86133 C 110.85177 196.86133 75.765625 240.92718 75.765625 284.00977 C 75.765625 327.10321 110.80847 371.19727 165.49609 371.19727 L 170.07422 371.19727 C 185.02244 384.62911 202.01642 398.98545 221.36914 411.19727 L 190.16016 411.19727 L 188.9082 411.19727 L 165.49609 411.19727 C 89.16186 411.19727 35.765625 348.93577 35.765625 284.00977 C 35.765625 219.0729 89.206553 156.86133 165.49609 156.86133 z " />
  <path
     style="display:none;fill:none;stroke:#000000;stroke-width:40;stroke-linecap:round;stroke-linejoin:miter;stroke-miterlimit:4;stroke-dasharray:none;stroke-opacity:1"
     d="m 241.60391,143.33496 c 0,0 26.28851,-25.33496 78.86553,-25.33496 52.57701,0 134.57212,39.73105 134.57212,144.25917 0,104.52812 -93.88753,129.56479 -130.1907,129.56479 -36.30318,0 -61.96577,-1.25183 -175.88264,-115.1687"
     id="path1857" />
  <path
     style="display:none;fill:none;stroke:#000000;stroke-width:1px;stroke-linecap:butt;stroke-linejoin:miter;stroke-opacity:1"
     d="m 191.53056,391.19804 c -48.1956,0 -135.198042,-11.89242 -135.198042,-110.78728 0,-68.85086 59.620372,-107.03179 102.024452,-107.03179 59.38058,0 78.23961,36.30318 129.56479,87.62836"
     id="path2221"
     sodipodi:nodetypes="cssc" />
  <circle
     style="display:none;opacity:0.410569;fill:#00ff00;stroke-width:97.8302;stroke-linecap:round;stroke-miterlimit:4;stroke-dasharray:none"
     id="path2430"
     cx="163.24205"
     cy="284.02936"
     r="107.15891"
     inkscape:label="gren"
     sodipodi:insensitive="true" />
  <circle
     style="display:none;opacity:0.455285;fill:#00ff00;stroke-width:124.687;stroke-linecap:round;stroke-miterlimit:4;stroke-dasharray:none"
     id="path2430-7"
     cx="320.3472"
     cy="254.61127"
     r="136.57787"
     inkscape:label="gren"
     sodipodi:insensitive="true" />
  <path
     style="color:#000000;display:none;fill:#000000;stroke-linecap:round;-inkscape-stroke:none"
     d="m 165.49609,156.86133 c -76.289545,0 -129.730465,62.21157 -129.730465,127.14844 0,64.926 53.396227,127.1875 129.730465,127.1875 13.87407,0 20.81073,0 23.41211,0 h 1.25196 69.5957 a 20,20 0 0 0 20,-20 20,20 0 0 0 -20,-20 h -69.5957 -24.66407 c -54.68762,0 -89.730465,-44.09406 -89.730465,-87.1875 0,-43.08259 35.086145,-87.14844 89.730465,-87.14844 25.59041,0 51.9759,16.03645 71.79883,33.77734 19.82293,17.74089 31.96094,35.3125 31.96094,35.3125 a 20,20 0 0 0 27.81445,5.13477 20,20 0 0 0 5.13477,-27.81446 c 0,0 -14.6197,-21.30507 -38.23438,-42.43945 -23.61467,-21.13438 -57.34625,-43.9707 -98.47461,-43.9707 z"
     id="path3203" />
  <path
     id="path3203-6-3"
     style="color:#000000;display:none;fill:#ffff00;stroke-linecap:round;-inkscape-stroke:none"
     d="m 320.625,98.666016 c -35.99629,0 -63.13798,10.680264 -81.00586,21.689454 -9.26134,5.70631 -16.32155,11.79892 -21.02539,16.37891 14.14983,5.37411 26.84075,12.49051 38.12695,20.19726 1.20646,-0.81933 2.47624,-1.65603 3.88086,-2.52148 12.50894,-7.70731 31.79886,-15.74414 60.02344,-15.74414 72.47567,0 116.08984,57.76885 116.08984,116.17773 0,57.73564 -47.09424,116.21875 -119.5,116.21875 h -0.0176 -0.0156 c -30.62886,0.0516 -70.47683,-25.046 -101,-52.52734 -30.52317,-27.48135 -51.5625,-55.02539 -51.5625,-55.02539 a 20,20 0 0 0 -28.0293,-3.78711 20,20 0 0 0 -3.78515,28.03125 c 0,0 22.99279,30.23957 56.61133,60.50781 33.61411,30.26426 78.0109,62.87617 127.8125,62.80078 94.04352,-0.008 159.48632,-76.63275 159.48632,-156.21875 0,-78.91668 -61.9969,-156.177734 -156.08984,-156.177734 z" />
  <path
     id="path3203-1-6"
     style="color:#000000;display:none;fill:#ffff00;stroke-linecap:round;-inkscape-stroke:none"
     d="m 165.49609,156.86133 c -76.289541,0 -129.730465,62.21157 -129.730465,127.14844 0,64.926 53.396231,127.1875 129.730465,127.1875 h 23.41211 1.25196 31.20898 c -19.35272,-12.21182 -36.3467,-26.56816 -51.29492,-40 h -4.57813 c -54.68762,0 -89.730465,-44.09406 -89.730465,-87.1875 0,-43.08259 35.086145,-87.14844 89.730465,-87.14844 25.59041,0 51.9759,16.03645 71.79883,33.77734 19.82293,17.74089 31.96094,35.3125 31.96094,35.3125 a 20,20 0 0 0 27.81445,5.13477 20,20 0 0 0 5.13477,-27.81446 c 0,0 -14.6197,-21.30507 -38.23438,-42.43945 -23.61467,-21.13438 -57.34625,-43.9707 -98.47461,-43.9707 z" />
  <path
     style="display:none;fill:none;stroke:#000000;stroke-width:40;stroke-linecap:round;stroke-linejoin:miter;stroke-miterlimit:4;stroke-dasharray:none;stroke-opacity:1"
     d="m 227.76155,156.09908 c 0,0 28.64323,-37.43302 92.86416,-37.43302 83.28439,0 136.08908,67.51435 136.08908,136.1772 0,68.66285 -56.27172,136.21913 -139.50017,136.21913 -80.4385,0.13565 -168.5028,-115.43146 -168.5028,-115.43146"
     id="path3203-6-6"
     sodipodi:nodetypes="csscc" />
</svg>
