<svg xmlns="http://www.w3.org/2000/svg" viewBox="0 0 512 512"><g id="games"><path d="M421.55,439.52a90.52,90.52,0,0,1-79-46.4l-37.31-66.89a9.88,9.88,0,0,0-8.63-5.07H215.39a9.88,9.88,0,0,0-8.63,5.07l-37.31,66.89A90.45,90.45,0,0,1,0,349.06V193.63A121.29,121.29,0,0,1,121.15,72.48h269.7A121.29,121.29,0,0,1,512,193.63V349.06A90.56,90.56,0,0,1,421.55,439.52ZM215.39,289h81.22a42.11,42.11,0,0,1,36.76,21.59l37.31,66.89a58.24,58.24,0,0,0,109.11-28.37V193.63a89,89,0,0,0-88.94-88.94H121.15a89,89,0,0,0-88.94,88.94V349.06a58.24,58.24,0,0,0,109.11,28.37l37.31-66.89A42.11,42.11,0,0,1,215.39,289Z"/><path d="M194.34,206.82A17.14,17.14,0,0,1,177.19,224H151.48v25.72a17.15,17.15,0,0,1-34.29,0V224H91.48a17.14,17.14,0,1,1,0-34.28h25.71V164a17.15,17.15,0,0,1,34.29,0v25.72h25.71A17.15,17.15,0,0,1,194.34,206.82Z"/><circle cx="377.66" cy="163.95" r="17.13"/><circle cx="377.66" cy="249.69" r="17.13"/><circle cx="420.53" cy="206.82" r="17.13"/><circle cx="334.8" cy="206.82" r="17.13"/></g></svg>