<svg xmlns="http://www.w3.org/2000/svg" width="512" height="512" viewBox="0 0 512 512">
  <g id="artboard_4_github" data-name="artboard 4 github">
    <g style="opacity: 0.01">
      <path d="M512-.021h0v512H0v-512H512m0,0H0v512H512v-512Z"/>
    </g>
    <path d="M256-.022C114.632-.022,0,117.493,0,262.477,0,378.443,73.342,476.819,175.081,511.535c12.8,2.405,17.476-5.7,17.476-12.645,0-6.194-.227-22.711-.351-44.647-71.225,15.856-86.234-35.19-86.234-35.19-11.644-30.318-28.418-38.39-28.418-38.39-23.247-16.29,1.754-15.96,1.754-15.96,25.693,1.859,39.226,27.046,39.226,27.046,22.834,40.115,59.871,28.532,74.5,21.812,2.323-16.96,8.94-28.522,16.258-35.1-56.846-6.627-116.645-29.142-116.645-129.727,0-28.656,9.972-52.089,26.354-70.443-2.633-6.637-11.417-33.322,2.508-69.462,0,0,21.492-7.061,70.4,26.912a236.822,236.822,0,0,1,128.176,0c48.877-33.973,70.327-26.912,70.327-26.912,13.967,36.13,5.162,62.825,2.55,69.462,16.4,18.354,26.312,41.787,26.312,70.443,0,100.833-59.871,123.027-116.882,129.52,9.187,8.1,17.383,24.125,17.383,48.61,0,35.1-.32,63.4-.32,72.012,0,7.02,4.614,15.185,17.61,12.615C438.71,476.727,512,378.412,512,262.477,512,117.493,397.419-.022,256-.022Z"/>
  </g>
</svg>
