<svg xmlns="http://www.w3.org/2000/svg" viewBox="0 0 512 512"><defs><style>.cls-1{fill-rule:evenodd;}</style></defs><g id="iso"><path class="cls-1" d="M122.33,183.33a15.17,15.17,0,0,0-15.19,15.13h0v115a15.19,15.19,0,0,0,30.38,0v-115A15.18,15.18,0,0,0,122.33,183.33Z"/><path class="cls-1" d="M203.63,183.33c-24.7,0-44.82,19.69-44.82,43.9s20.12,43.89,44.82,43.89h16.72c8,0,14.4,6.11,14.4,13.61s-6.45,13.63-14.4,13.63H198.73c-8,0-13.91-4-15.28-5.56a15.18,15.18,0,0,0-25.16,17c6.27,9.38,22.17,18.86,40.44,18.86h21.62c24.69,0,44.8-19.69,44.8-43.9s-20.09-43.89-44.81-43.89H203.53c-8,0-14.46-6.11-14.46-13.61s6.49-13.63,14.46-13.63h15.95a14.39,14.39,0,0,1,11.41,5,15.17,15.17,0,0,0,25.73-16,44.25,44.25,0,0,0-37.16-19.23Z"/><path d="M341.05,183.33c-35.15,0-63.8,32.6-63.8,72.65s28.63,72.65,63.8,72.65,63.81-32.58,63.81-72.65S376.22,183.35,341.05,183.33Zm0,115c-18.4,0-33.47-19-33.47-42.38s15-42.38,33.4-42.38h.08c18.45,0,33.43,19,33.43,42.38s-14.95,42.38-33.4,42.38Z"/><path d="M411.62,82.7A68.46,68.46,0,0,1,480,151.08V360.92a68.46,68.46,0,0,1-68.38,68.38H100.38A68.46,68.46,0,0,1,32,360.92V151.08A68.46,68.46,0,0,1,100.38,82.7H411.62m0-32H100.38A100.38,100.38,0,0,0,0,151.08V360.92A100.38,100.38,0,0,0,100.38,461.3H411.62A100.38,100.38,0,0,0,512,360.92V151.08A100.38,100.38,0,0,0,411.62,50.7Z"/></g></svg>