<?xml version="1.0" encoding="UTF-8" standalone="no"?>
<svg
   id="color"
   width="1024"
   height="1024"
   viewBox="0 0 1024 1024"
   version="1.1"
   sodipodi:docname="linux.svg"
   inkscape:version="1.1.2 (b8e25be833, 2022-02-05)"
   xmlns:inkscape="http://www.inkscape.org/namespaces/inkscape"
   xmlns:sodipodi="http://sodipodi.sourceforge.net/DTD/sodipodi-0.dtd"
   xmlns:xlink="http://www.w3.org/1999/xlink"
   xmlns="http://www.w3.org/2000/svg"
   xmlns:svg="http://www.w3.org/2000/svg">
  <sodipodi:namedview
     id="namedview3938"
     pagecolor="#ffffff"
     bordercolor="#666666"
     borderopacity="1.0"
     inkscape:pageshadow="2"
     inkscape:pageopacity="0.0"
     inkscape:pagecheckerboard="0"
     showgrid="false"
     showguides="true"
     inkscape:guide-bbox="true"
     inkscape:zoom="0.79882812"
     inkscape:cx="511.37408"
     inkscape:cy="512"
     inkscape:window-width="1920"
     inkscape:window-height="1027"
     inkscape:window-x="-8"
     inkscape:window-y="-8"
     inkscape:window-maximized="1"
     inkscape:current-layer="color">
    <sodipodi:guide
       position="171.68133,634.36861"
       orientation="0,-1"
       id="guide4260" />
    <sodipodi:guide
       position="100,554.00713"
       orientation="-1,0"
       id="guide4264"
       inkscape:label=""
       inkscape:locked="false"
       inkscape:color="rgb(0,0,255)" />
    <sodipodi:guide
       position="924,812.13793"
       orientation="-1,0"
       id="guide4266"
       inkscape:label=""
       inkscape:locked="false"
       inkscape:color="rgb(0,0,255)" />
    <sodipodi:guide
       position="124,109.58383"
       orientation="-1,0"
       id="guide4438"
       inkscape:label=""
       inkscape:locked="false"
       inkscape:color="rgb(0,0,255)" />
    <sodipodi:guide
       position="900,399.37218"
       orientation="-1,0"
       id="guide4440"
       inkscape:label=""
       inkscape:locked="false"
       inkscape:color="rgb(0,0,255)" />
    <sodipodi:guide
       position="473.19315,328.60636"
       orientation="0,-1"
       id="guide5581" />
    <sodipodi:guide
       position="22.129503,0"
       orientation="0,1"
       id="guide8776"
       inkscape:label=""
       inkscape:locked="false"
       inkscape:color="rgb(0,0,255)" />
    <sodipodi:guide
       position="292,314.55918"
       orientation="-1,0"
       id="guide9889"
       inkscape:label=""
       inkscape:locked="false"
       inkscape:color="rgb(0,0,255)" />
    <sodipodi:guide
       position="732,272.89976"
       orientation="-1,0"
       id="guide9891"
       inkscape:label=""
       inkscape:locked="false"
       inkscape:color="rgb(0,0,255)" />
  </sodipodi:namedview>
  <defs
     id="defs3924">
    <inkscape:path-effect
       effect="fillet_chamfer"
       id="path-effect9381"
       is_visible="true"
       lpeversion="1"
       satellites_param="F,0,0,1,0,0,0,1 @ F,0,0,1,0,0,0,1 @ F,0,0,1,0,30,0,1 @ F,0,0,1,0,30,0,1 @ F,0,0,1,0,0,0,1 | F,0,0,1,0,0,0,1 @ F,0,0,1,0,0,0,1 @ F,0,0,1,0,30,0,1 @ F,0,1,1,0,72.388842,0,1 @ F,0,0,1,0,0,0,1"
       unit="px"
       method="auto"
       mode="F"
       radius="30"
       chamfer_steps="1"
       flexible="false"
       use_knot_distance="true"
       apply_no_radius="true"
       apply_with_radius="true"
       only_selected="true"
       hide_knots="false" />
    <linearGradient
       id="linear-gradient"
       x1="1117.43"
       y1="729.89"
       x2="1168.95"
       y2="1022.07"
       gradientTransform="matrix(-1, 0, 0, 1, 1442.68, 0)"
       gradientUnits="userSpaceOnUse">
      <stop
         offset="0"
         stop-color="#000000"
         id="stop3912" />
      <stop
         offset="0.33"
         stop-color="#000000"
         id="stop3914" />
      <stop
         offset="0.59"
         stop-color="#000000"
         id="stop3916" />
      <stop
         offset="0.82"
         stop-color="#000000"
         id="stop3918" />
      <stop
         offset="1"
         stop-color="#000000"
         id="stop3920" />
    </linearGradient>
    <linearGradient
       id="linear-gradient-2"
       x1="698.75"
       y1="729.89"
       x2="750.27"
       y2="1022.07"
       xlink:href="#linear-gradient"
       gradientTransform="translate(49.921522,85.231867)" />
  </defs>
  <g
     style="opacity:0.01"
     id="g3928">
    <path
       d="M1024,0h0V1024H0V0H1024m0,0H0V1024H1024V0Z"
       id="path3926" />
  </g>
  <path
     id="body_black"
     style="display:inline"
     d="M 512 0 C 368 0 256 94.799762 256 211.75977 L 256 272.00977 C 256 272.00977 100 389.63116 96 608.00977 C 100 709.44059 160 640.00977 160 640.00977 C 154.03453 684.72718 154.95575 726.02061 161.2168 763.76172 C 162.99179 760.48877 164.67688 757.16431 166.57227 753.96484 C 190.02613 714.37416 225.16787 678.90184 270.75 669.00195 C 281.40233 608.41305 301.29966 547.43798 320 496 C 353.24 404.57 278.19938 281.91023 485.60938 414.74023 C 501.69963 425.02501 522.30039 425.02501 538.39062 414.74023 C 745.80062 281.91023 670.76 404.57 704 496 C 722.70407 547.44824 742.60712 608.43754 753.25781 669.0332 C 798.78568 678.97862 833.88261 714.4346 857.30859 753.99219 C 859.23438 757.24411 860.94858 760.62162 862.75 763.94922 C 869.04029 726.1588 869.97559 684.80008 864 640 C 864 640 924 709.44082 928 608 C 924 389.63139 768 272 768 272 L 768 211.75977 C 768 94.799762 656 0 512 0 z M 398 167.74023 A 46.259998 46.259998 0 0 1 444.25977 214 A 46.259998 46.259998 0 0 1 398 260.25977 A 46.259998 46.259998 0 0 1 351.74023 214 A 46.259998 46.259998 0 0 1 398 167.74023 z M 626 167.74023 A 46.259998 46.259998 0 0 1 672.25977 214 A 46.259998 46.259998 0 0 1 626 260.25977 A 46.259998 46.259998 0 0 1 579.74023 214 A 46.259998 46.259998 0 0 1 626 167.74023 z M 460.54883 957.42969 C 453.27547 981.60459 441.12156 1003.5788 425.42578 1022.291 A 276.79 276.79 0 0 0 450.85938 1024 L 573.10938 1024 A 276.79 276.79 0 0 0 598.44531 1022.2988 C 582.74765 1003.586 570.59259 981.61018 563.31836 957.43359 C 547.36491 959.09338 530.37467 960.05078 512 960.05078 C 493.57676 960.05078 476.54012 959.09524 460.54883 957.42969 z " />
  <path
     id="foot-3"
     d="m 292,705.40831 c 82.29051,0 135.14049,129.29772 135.14049,204.38158 0,75.09553 -60.50446,110.30961 -135.14049,110.30961 -74.63603,0 -135.14049,-35.21408 -135.14049,-110.30961 0,-75.13833 52.88247,-204.38158 135.14049,-204.38158 z"
     style="display:inline;opacity:1;fill:#000000;stroke:none;stroke-width:0;stroke-miterlimit:4;stroke-dasharray:none;stroke-opacity:1"
     sodipodi:nodetypes="sssss" />
  <path
     id="foot-3-1"
     d="m 732,705.40831 c 82.29051,0 135.14049,129.29772 135.14049,204.38158 0,75.09553 -60.50446,110.30961 -135.14049,110.30961 -74.63603,0 -135.14049,-35.21408 -135.14049,-110.30961 0,-75.13833 52.88247,-204.38158 135.14049,-204.38158 z"
     style="display:inline;fill:#000000;stroke:none;stroke-width:0;stroke-miterlimit:4;stroke-dasharray:none;stroke-opacity:1"
     sodipodi:nodetypes="sssss" />
</svg>
