<?xml version="1.0" encoding="UTF-8" standalone="no"?>
<svg
   id="bw"
   viewBox="0 0 512 512"
   version="1.1"
   sodipodi:docname="realityCapture3.svg"
   width="512"
   height="512"
   inkscape:version="1.1.2 (b8e25be833, 2022-02-05)"
   xmlns:inkscape="http://www.inkscape.org/namespaces/inkscape"
   xmlns:sodipodi="http://sodipodi.sourceforge.net/DTD/sodipodi-0.dtd"
   xmlns="http://www.w3.org/2000/svg"
   xmlns:svg="http://www.w3.org/2000/svg">
  <defs
     id="defs2211" />
  <sodipodi:namedview
     id="namedview2209"
     pagecolor="#ffffff"
     bordercolor="#666666"
     borderopacity="1.0"
     inkscape:pageshadow="2"
     inkscape:pageopacity="0.0"
     inkscape:pagecheckerboard="0"
     showgrid="false"
     inkscape:zoom="1.5976562"
     inkscape:cx="255.68704"
     inkscape:cy="256"
     inkscape:window-width="1920"
     inkscape:window-height="1027"
     inkscape:window-x="-8"
     inkscape:window-y="-8"
     inkscape:window-maximized="1"
     inkscape:current-layer="bw"
     showguides="true"
     inkscape:guide-bbox="true"
     width="512px" />
  <path
     id="path2206"
     style="display:inline;fill:#000000;stroke-width:0.671724"
     d="m 188.14096,140.43018 c -22.24525,38.51803 -44.48662,77.04005 -66.72894,115.56045 22.43134,38.84481 44.86285,77.68951 67.2938,116.53453 44.86432,3e-4 89.72862,2.9e-4 134.59293,-0.002 22.43134,-38.8427 44.86019,-77.68683 67.28914,-116.53092 -22.43166,-38.84536 -44.86349,-77.6906 -67.29476,-116.53618 -44.8629,-7.1e-4 -89.72578,0.001 -134.58868,0.002 -0.18783,0.32413 -0.37565,0.64825 -0.56349,0.97238 z m 108.06324,22.48256 c -15.65894,27.11562 -31.31787,54.23124 -46.97682,81.34686 -31.31605,1.4e-4 -62.63212,2.9e-4 -93.94817,4.4e-4 15.65925,-27.11506 31.31852,-54.23013 46.97777,-81.34519 31.31574,-7.1e-4 62.63149,-0.001 93.94722,-0.002 z m -46.98277,104.80965 c 15.66029,27.11437 31.32057,54.22875 46.98086,81.34313 -31.3189,3e-4 -62.6378,6.2e-4 -93.9567,9.5e-4 -15.65704,-27.11407 -31.31432,-54.22796 -46.97102,-81.34221 31.31575,-7e-4 62.63149,-0.001 93.94724,-0.002 z M 363.5017,255.988 c -15.65761,27.11411 -31.31522,54.22823 -46.97282,81.34234 -15.65907,-27.11434 -31.31906,-54.22816 -46.97815,-81.34248 15.65793,-27.11356 31.31585,-54.22713 46.97378,-81.34069 15.65875,27.11379 31.31841,54.22705 46.97719,81.34083 z M 127.78096,33.95856 C 92.640812,54.470859 62.887523,83.049184 40.979832,117.33189 L 107.10409,231.83713 240.90775,0.1313557 C 201.0803,2.4557007 162.34459,14.038464 127.78096,33.95856 Z M 268.88067,1.5e-6 202.47482,114.99576 l 267.64272,4e-5 C 425.18196,46.8127 350.44858,4.1066939 268.88067,1.5e-6 Z M 26.89537,141.25003 c -36.3849341,73.03666 -35.8245726,159.02723 1.509131,231.58371 l 132.225749,6.6e-4 z m 324.47535,-2.10009 133.7339,231.58267 C 521.48957,297.69597 520.9292,211.70539 483.5955,139.14891 Z M 42.587231,396.98859 C 87.372361,464.98109 161.79501,507.66702 243.10892,512 L 309.52517,396.98689 Z M 404.89688,280.14722 271.33716,511.42622 c 39.70896,-2.23176 78.35448,-13.6671 112.88189,-33.40212 35.14013,-20.51231 64.89343,-49.09063 86.80111,-83.37334 z" />
</svg>
