<svg xmlns="http://www.w3.org/2000/svg" viewBox="0 0 512 512"><g id="globe"><path d="M0,256C0,114.62,114.62,0,256,0S512,114.62,512,256,397.38,512,256,512,0,397.38,0,256ZM240,34.46C218.56,41,197.28,60.7,179.62,93.82a255.61,255.61,0,0,0-15,34.18H240ZM130.88,128a296.46,296.46,0,0,1,20.48-49.25,213.82,213.82,0,0,1,19.1-29.85A224.8,224.8,0,0,0,72.16,128ZM112.26,240a438.31,438.31,0,0,1,10-80H53.57a222.72,222.72,0,0,0-21,80Zm42.84-80a400.4,400.4,0,0,0-10.81,80H240V160ZM272,160v80h95.68a400.36,400.36,0,0,0-10.78-80ZM144.32,272a400.36,400.36,0,0,0,10.78,80H240V272ZM272,272v80h84.9a398.57,398.57,0,0,0,10.81-80ZM164.64,384a255.13,255.13,0,0,0,15,34.18c17.66,33.12,39,52.8,60.38,59.36V384Zm5.82,79.1a213.82,213.82,0,0,1-19.1-29.85A296.46,296.46,0,0,1,130.88,384H72.16A224.8,224.8,0,0,0,170.46,463.1ZM122.24,352a436.09,436.09,0,0,1-10-80H32.58a221.54,221.54,0,0,0,21,80Zm219.3,111.1a224.8,224.8,0,0,0,98.3-79.1H381.12a296.46,296.46,0,0,1-20.48,49.25A213.82,213.82,0,0,1,341.54,463.1ZM272,384v93.54c21.44-6.53,42.72-26.24,60.38-59.36a255.13,255.13,0,0,0,15-34.18Zm117.76-32h68.67a221.54,221.54,0,0,0,21-80H399.74A436.09,436.09,0,0,1,389.76,352Zm89.66-112a222.72,222.72,0,0,0-21-80H389.76a438.31,438.31,0,0,1,10,80ZM360.64,78.75A296.86,296.86,0,0,1,381.12,128h58.72a224.8,224.8,0,0,0-98.3-79.1A217.39,217.39,0,0,1,360.64,78.75ZM347.36,128a255,255,0,0,0-15-34.18C314.72,60.7,293.44,41,272,34.46V128Z"/></g></svg>