<?xml version="1.0" encoding="UTF-8"?>
<svg id="Layer_2" data-name="Layer 2" xmlns="http://www.w3.org/2000/svg" viewBox="0 0 128 71.778">
  <path d="m95.226,21.628l10.618-18.394c.6-1.032.236-2.34-.78-2.94-1.018-.6-2.34-.25-2.926.78l-10.758,18.63c-8.208-3.748-17.446-5.838-27.38-5.838s-19.174,2.09-27.38,5.838L25.862,1.074c-.6-1.032-1.908-1.38-2.94-.78-1.032.6-1.38,1.908-.78,2.94l10.618,18.394C14.45,31.55,2.048,50.082,0,71.778h128c-2.048-21.696-14.45-40.228-32.774-50.15h0Zm-60.614,32.174c-2.968,0-5.364-2.41-5.364-5.364s2.41-5.364,5.364-5.364,5.364,2.41,5.364,5.364c.014,2.954-2.396,5.364-5.364,5.364Zm58.76,0c-2.968,0-5.364-2.41-5.364-5.364s2.41-5.364,5.364-5.364,5.364,2.41,5.364,5.364c.014,2.954-2.396,5.364-5.364,5.364Z"/>
</svg>