<?xml version="1.0" encoding="UTF-8"?>
<svg id="Layer_1" data-name="Layer 1" xmlns="http://www.w3.org/2000/svg" viewBox="0 0 128 128">
  <path d="m117.661,0H10.339C4.629,0,0,4.629,0,10.339v107.322c0,5.71,4.629,10.339,10.339,10.339h107.322c5.71,0,10.339-4.629,10.339-10.339V10.339c0-5.71-4.629-10.339-10.339-10.339ZM38.25,108.75h-18.5v-60.375h18.5v60.375Zm-9.25-68.75c-5.938,0-10.75-4.812-10.75-10.75s4.812-10.75,10.75-10.75,10.75,4.812,10.75,10.75-4.812,10.75-10.75,10.75Zm79.875,68.75h-18.5v-32.25c0-19.25-21.5-14.5-21.5-.5v32.75h-18.5v-60.375h18.5v7.897c2.5-11.522,40-19.897,40,16.478v36Z"/>
</svg>