<?xml version="1.0" encoding="UTF-8"?>
<svg id="greyscale" xmlns="http://www.w3.org/2000/svg" viewBox="0 0 127.999 89.599">
  <path d="m125.323,13.99c-1.486-5.52-5.796-9.832-11.316-11.316C104.025,0,63.998,0,63.998,0c0,0-40.026,0-50.008,2.674-5.52,1.486-9.832,5.796-11.316,11.316C0,23.972,0,44.798,0,44.798c0,0,0,20.826,2.674,30.808,1.484,5.52,5.796,9.832,11.316,11.316,9.982,2.676,50.008,2.676,50.008,2.676,0,0,40.026,0,50.008-2.676,5.52-1.486,9.832-5.796,11.316-11.316,2.676-9.982,2.676-30.808,2.676-30.808,0,0,0-20.826-2.676-30.808h0ZM51.198,63.998V25.598l33.254,19.2s-33.254,19.2-33.254,19.2Z"/>
</svg>