<?xml version="1.0" encoding="utf-8"?>
<!-- Generator: Adobe Illustrator 27.9.0, SVG Export Plug-In . SVG Version: 6.00 Build 0)  -->
<svg version="1.1" id="Layer_1" xmlns="http://www.w3.org/2000/svg" xmlns:xlink="http://www.w3.org/1999/xlink" x="0px" y="0px"
	 viewBox="0 0 26 26" style="enable-background:new 0 0 26 26;" xml:space="preserve">
<style type="text/css">
	.st0{fill:none;stroke:#000000;stroke-width:2;stroke-miterlimit:10;}
</style>
<path class="st0" d="M13,6.681c3.054,0,5.553,2.499,5.553,5.553S16.054,17.787,13,17.787s-5.553-2.499-5.553-5.553
	S9.946,6.681,13,6.681 M6.336,22.6c0-2.406,1.296-4.628,3.424-5.831 M16.239,16.769c2.129,1.203,3.424,3.424,3.424,5.831"/>
<g>
	<path d="M13,2c6.065,0,11,4.935,11,11s-4.935,11-11,11S2,19.065,2,13S6.935,2,13,2 M13,0C5.82,0,0,5.82,0,13s5.82,13,13,13
		s13-5.82,13-13S20.18,0,13,0L13,0z"/>
</g>
</svg>
