<?xml version="1.0" encoding="UTF-8"?>
<svg xmlns="http://www.w3.org/2000/svg" version="1.1" viewBox="0 0 26 26">
  <defs>
    <style>
      .cls-1 {
        fill: none;
        stroke: #000;
        stroke-miterlimit: 10;
        stroke-width: 1.5px;
      }
    </style>
  </defs>
  <!-- Generator: Adobe Illustrator 28.7.9, SVG Export Plug-In . SVG Version: 1.2.0 Build 218)  -->
  <g>
    <g id="Layer_3">
      <path d="M13,1.5c6.3,0,11.5,5.2,11.5,11.5s-5.2,11.5-11.5,11.5S1.5,19.3,1.5,13,6.7,1.5,13,1.5M13,0C5.8,0,0,5.8,0,13s5.8,13,13,13,13-5.8,13-13S20.2,0,13,0h0Z"/>
      <line class="cls-1" x1="1.6" y1="8.4" x2="24.7" y2="8.4"/>
      <line class="cls-1" x1="1.4" y1="17.6" x2="24.5" y2="17.6"/>
      <path class="cls-1" d="M11.3.9c-.9,1.3-2,3.3-2.8,6.1-1.5,5.6-.3,10.5.1,11.9.8,2.8,1.9,4.9,2.7,6.1"/>
      <path class="cls-1" d="M14.6.9c.9,1.3,2,3.3,2.8,6.1,1.5,5.6.3,10.5-.1,11.9-.8,2.8-1.9,4.9-2.7,6.1"/>
    </g>
  </g>
</svg>