<?xml version="1.0" encoding="utf-8"?>
<!-- Generator: Adobe Illustrator 27.9.0, SVG Export Plug-In . SVG Version: 6.00 Build 0)  -->
<svg version="1.1" id="Layer_2_00000175304770919147042450000015393074464924798883_"
	 xmlns="http://www.w3.org/2000/svg" xmlns:xlink="http://www.w3.org/1999/xlink" x="0px" y="0px" viewBox="0 0 26 26"
	 style="enable-background:new 0 0 26 26;" xml:space="preserve">
<style type="text/css">
	.st0{display:none;opacity:0.24;}
	.st1{fill:none;stroke:#000000;stroke-width:2;stroke-miterlimit:10;}
</style>
<path class="st0" d="M0,13C0,5.8,5.8,0,13,0s13,5.8,13,13s-5.8,13-13,13S0,20.2,0,13z M12.2,1.8c-1.1,0.3-2.2,1.3-3.1,3
	C8.8,5.3,8.6,5.9,8.4,6.5h3.8C12.2,6.5,12.2,1.8,12.2,1.8z M6.6,6.5c0.3-0.9,0.6-1.7,1-2.5c0.3-0.5,0.6-1,1-1.5c-2,0.8-3.7,2.2-5,4
	H6.6z M5.7,12.2c0-1.4,0.2-2.8,0.5-4.1H2.7c-0.6,1.3-1,2.7-1.1,4.1C1.7,12.2,5.7,12.2,5.7,12.2z M7.9,8.1c-0.3,1.3-0.5,2.7-0.5,4.1
	h4.9V8.1H7.9z M13.8,8.1v4.1h4.9c0-1.4-0.2-2.7-0.5-4.1H13.8z M7.3,13.8c0,1.4,0.2,2.7,0.5,4.1h4.3v-4.1H7.3z M13.8,13.8v4.1h4.3
	c0.3-1.2,0.5-2.6,0.5-4.1H13.8z M8.4,19.5c0.2,0.6,0.5,1.2,0.8,1.7c0.9,1.7,2,2.7,3.1,3v-4.7H8.4z M8.7,23.5c-0.4-0.5-0.7-1-1-1.5
	c-0.4-0.8-0.8-1.6-1-2.5h-3C4.9,21.3,6.6,22.7,8.7,23.5z M6.2,17.9c-0.3-1.3-0.5-2.7-0.5-4.1h-4c0.1,1.4,0.5,2.8,1.1,4.1H6.2z
	 M17.3,23.5c2-0.8,3.7-2.2,5-4h-3c-0.3,0.9-0.6,1.7-1,2.5C18,22.5,17.7,23,17.3,23.5z M13.8,19.5v4.7c1.1-0.3,2.2-1.3,3.1-3
	c0.3-0.5,0.5-1.1,0.8-1.7C17.6,19.5,13.8,19.5,13.8,19.5z M19.8,17.9h3.5c0.6-1.2,1-2.6,1.1-4.1h-4C20.3,15.2,20.1,16.5,19.8,17.9z
	 M24.3,12.2c-0.1-1.4-0.5-2.8-1.1-4.1h-3.5c0.3,1.3,0.5,2.6,0.5,4.1H24.3z M18.3,4c0.4,0.8,0.8,1.6,1,2.5h3c-1.2-1.8-3-3.2-5-4
	C17.7,2.9,18,3.5,18.3,4z M17.6,6.5c-0.2-0.6-0.5-1.2-0.8-1.7c-0.9-1.7-2-2.7-3.1-3v4.7H17.6z"/>
<g>
	<path d="M13,2c6.1,0,11,4.9,11,11s-4.9,11-11,11S2,19.1,2,13S6.9,2,13,2 M13,0C5.8,0,0,5.8,0,13s5.8,13,13,13s13-5.8,13-13
		S20.2,0,13,0L13,0z"/>
</g>
<line class="st1" x1="1.3" y1="13" x2="24.7" y2="13"/>
<line class="st1" x1="2.9" y1="7" x2="23.1" y2="7"/>
<line class="st1" x1="2.9" y1="19" x2="23.1" y2="19"/>
<line class="st1" x1="13" y1="24.7" x2="13" y2="1.3"/>
<ellipse class="st1" cx="13" cy="13" rx="6.2" ry="12"/>
</svg>
