<?xml version="1.0" encoding="utf-8"?>
<!-- Generator: Adobe Illustrator 27.9.0, SVG Export Plug-In . SVG Version: 6.00 Build 0)  -->
<svg version="1.1" id="Layer_2_00000066483199898204807050000016501711255774432921_"
	 xmlns="http://www.w3.org/2000/svg" xmlns:xlink="http://www.w3.org/1999/xlink" x="0px" y="0px" viewBox="0 0 26 26"
	 style="enable-background:new 0 0 26 26;" xml:space="preserve">
<style type="text/css">
	.st0{fill:none;stroke:#000000;stroke-width:2;stroke-miterlimit:10;}
	.st1{stroke:#000000;stroke-width:2;stroke-miterlimit:10;}
	.st2{stroke:#000000;stroke-width:2;stroke-linecap:round;stroke-linejoin:round;stroke-miterlimit:10;}
</style>
<path class="st0" d="M21.5,6.626v16.861c0,0.835-0.677,1.513-1.513,1.513H6.012C5.177,25,4.5,24.323,4.5,23.487V2.513
	C4.5,1.677,5.177,1,6.012,1h9.861c0.401,0,0.786,0.159,1.069,0.443l4.114,4.114C21.341,5.841,21.5,6.225,21.5,6.626z"/>
<path class="st1" d="M16,0.5v5.249C16,6.164,16.336,6.5,16.751,6.5H22"/>
<line class="st2" x1="9" y1="20.287" x2="14.171" y2="20.287"/>
<line class="st2" x1="9" y1="16.287" x2="17" y2="16.287"/>
<line class="st2" x1="9" y1="12.287" x2="17" y2="12.287"/>
</svg>
